<svg width="140" height="155" viewBox="0 0 140 155" fill="none" xmlns="http://www.w3.org/2000/svg">
<path d="M136.235 30.2702L71.6452 0.459463C70.9912 0.156779 70.2791 0 69.5585 0C68.8378 0 68.1257 0.156779 67.4717 0.459463L2.88172 30.2702C2.0193 30.6694 1.28942 31.3074 0.778659 32.1088C0.267894 32.9102 -0.00233629 33.8412 1.52171e-05 34.7915V119.255C-0.00233629 120.206 0.267894 121.137 0.778659 121.938C1.28942 122.739 2.0193 123.378 2.88172 123.777L67.4717 153.587C68.1257 153.89 68.8378 154.047 69.5585 154.047C70.2791 154.047 70.9912 153.89 71.6452 153.587L136.235 123.777C137.098 123.378 137.828 122.739 138.338 121.938C138.849 121.137 139.119 120.206 139.117 119.255V34.7915C139.119 33.8412 138.849 32.9102 138.338 32.1088C137.828 31.3074 137.098 30.6694 136.235 30.2702ZM69.5585 59.137L16.8431 34.7915L69.5585 10.4461L122.274 34.7915L69.5585 59.137ZM129.18 116.076L74.5269 141.315V67.7821L129.18 42.5423V116.076Z" fill="#1C1C1C"/>
</svg>
